<mxfile host="app.diagrams.net" agent="Mozilla/5.0 (Windows NT 10.0; Win64; x64) AppleWebKit/537.36 (KHTML, like Gecko) Chrome/130.0.0.0 Safari/537.36" version="24.8.0">
  <diagram name="Página-1" id="BsHcdB-bG50Dmm7WPBxn">
    <mxGraphModel dx="1235" dy="655" grid="0" gridSize="10" guides="1" tooltips="1" connect="1" arrows="1" fold="1" page="0" pageScale="1" pageWidth="827" pageHeight="1169" math="0" shadow="0">
      <root>
        <mxCell id="0" />
        <mxCell id="1" parent="0" />
        <mxCell id="DsJNgyasQLabcaco0UrT-6" value="" style="edgeStyle=orthogonalEdgeStyle;rounded=0;orthogonalLoop=1;jettySize=auto;html=1;" edge="1" parent="1" source="DsJNgyasQLabcaco0UrT-1" target="DsJNgyasQLabcaco0UrT-5">
          <mxGeometry relative="1" as="geometry" />
        </mxCell>
        <mxCell id="DsJNgyasQLabcaco0UrT-1" value="AGUARDANDO" style="rounded=0;whiteSpace=wrap;html=1;fillColor=#dae8fc;strokeColor=#6c8ebf;" vertex="1" parent="1">
          <mxGeometry x="170" y="90" width="120" height="60" as="geometry" />
        </mxCell>
        <mxCell id="DsJNgyasQLabcaco0UrT-10" value="" style="edgeStyle=orthogonalEdgeStyle;rounded=0;orthogonalLoop=1;jettySize=auto;html=1;entryX=0;entryY=0.5;entryDx=0;entryDy=0;" edge="1" parent="1" source="DsJNgyasQLabcaco0UrT-2" target="DsJNgyasQLabcaco0UrT-15">
          <mxGeometry relative="1" as="geometry" />
        </mxCell>
        <mxCell id="DsJNgyasQLabcaco0UrT-2" value="INICIO" style="rounded=0;whiteSpace=wrap;html=1;fillColor=#dae8fc;strokeColor=#6c8ebf;" vertex="1" parent="1">
          <mxGeometry x="170" y="475" width="120" height="60" as="geometry" />
        </mxCell>
        <mxCell id="DsJNgyasQLabcaco0UrT-28" style="edgeStyle=orthogonalEdgeStyle;rounded=0;orthogonalLoop=1;jettySize=auto;html=1;" edge="1" parent="1" source="DsJNgyasQLabcaco0UrT-3" target="DsJNgyasQLabcaco0UrT-29">
          <mxGeometry relative="1" as="geometry">
            <mxPoint x="520" y="120" as="targetPoint" />
          </mxGeometry>
        </mxCell>
        <mxCell id="DsJNgyasQLabcaco0UrT-3" value="FINALIZADO" style="rounded=0;whiteSpace=wrap;html=1;fillColor=#dae8fc;strokeColor=#6c8ebf;" vertex="1" parent="1">
          <mxGeometry x="600" y="90" width="120" height="60" as="geometry" />
        </mxCell>
        <mxCell id="DsJNgyasQLabcaco0UrT-17" value="" style="edgeStyle=orthogonalEdgeStyle;rounded=0;orthogonalLoop=1;jettySize=auto;html=1;" edge="1" parent="1" source="DsJNgyasQLabcaco0UrT-4" target="DsJNgyasQLabcaco0UrT-16">
          <mxGeometry relative="1" as="geometry" />
        </mxCell>
        <mxCell id="DsJNgyasQLabcaco0UrT-4" value="MONITORANDO_TEMPERATURA" style="rounded=0;whiteSpace=wrap;html=1;fillColor=#dae8fc;strokeColor=#6c8ebf;" vertex="1" parent="1">
          <mxGeometry x="790" y="475" width="210" height="60" as="geometry" />
        </mxCell>
        <mxCell id="DsJNgyasQLabcaco0UrT-7" value="não" style="edgeStyle=orthogonalEdgeStyle;rounded=0;orthogonalLoop=1;jettySize=auto;html=1;entryX=0;entryY=0.5;entryDx=0;entryDy=0;" edge="1" parent="1" source="DsJNgyasQLabcaco0UrT-5" target="DsJNgyasQLabcaco0UrT-1">
          <mxGeometry x="-0.7494" relative="1" as="geometry">
            <Array as="points">
              <mxPoint x="117" y="280" />
              <mxPoint x="117" y="120" />
            </Array>
            <mxPoint x="1" as="offset" />
          </mxGeometry>
        </mxCell>
        <mxCell id="DsJNgyasQLabcaco0UrT-8" value="sim" style="edgeStyle=orthogonalEdgeStyle;rounded=0;orthogonalLoop=1;jettySize=auto;html=1;entryX=0.5;entryY=0;entryDx=0;entryDy=0;" edge="1" parent="1" source="DsJNgyasQLabcaco0UrT-5" target="DsJNgyasQLabcaco0UrT-2">
          <mxGeometry relative="1" as="geometry" />
        </mxCell>
        <mxCell id="DsJNgyasQLabcaco0UrT-5" value="recebeu sinal de iniciar via MQTT?" style="rhombus;whiteSpace=wrap;html=1;rounded=0;" vertex="1" parent="1">
          <mxGeometry x="175" y="230" width="110" height="100" as="geometry" />
        </mxCell>
        <mxCell id="DsJNgyasQLabcaco0UrT-12" value="não" style="edgeStyle=orthogonalEdgeStyle;rounded=0;orthogonalLoop=1;jettySize=auto;html=1;entryX=0;entryY=0.5;entryDx=0;entryDy=0;" edge="1" parent="1" source="DsJNgyasQLabcaco0UrT-9" target="DsJNgyasQLabcaco0UrT-1">
          <mxGeometry x="-0.9302" relative="1" as="geometry">
            <Array as="points">
              <mxPoint x="657" y="602" />
              <mxPoint x="80" y="602" />
              <mxPoint x="80" y="120" />
            </Array>
            <mxPoint as="offset" />
          </mxGeometry>
        </mxCell>
        <mxCell id="DsJNgyasQLabcaco0UrT-13" value="sim" style="edgeStyle=orthogonalEdgeStyle;rounded=0;orthogonalLoop=1;jettySize=auto;html=1;entryX=0;entryY=0.5;entryDx=0;entryDy=0;" edge="1" parent="1" source="DsJNgyasQLabcaco0UrT-9" target="DsJNgyasQLabcaco0UrT-4">
          <mxGeometry relative="1" as="geometry" />
        </mxCell>
        <mxCell id="DsJNgyasQLabcaco0UrT-9" value="tem xícara e água?" style="rhombus;whiteSpace=wrap;html=1;rounded=0;" vertex="1" parent="1">
          <mxGeometry x="617" y="465" width="80" height="80" as="geometry" />
        </mxCell>
        <mxCell id="DsJNgyasQLabcaco0UrT-31" style="edgeStyle=orthogonalEdgeStyle;rounded=0;orthogonalLoop=1;jettySize=auto;html=1;entryX=0;entryY=0.5;entryDx=0;entryDy=0;" edge="1" parent="1" source="DsJNgyasQLabcaco0UrT-15" target="DsJNgyasQLabcaco0UrT-9">
          <mxGeometry relative="1" as="geometry" />
        </mxCell>
        <mxCell id="DsJNgyasQLabcaco0UrT-15" value="ativa sinal de preparar;&lt;div&gt;espera delay de preparo&lt;/div&gt;" style="rounded=1;whiteSpace=wrap;html=1;" vertex="1" parent="1">
          <mxGeometry x="370" y="460" width="170" height="90" as="geometry" />
        </mxCell>
        <mxCell id="DsJNgyasQLabcaco0UrT-19" value="sim" style="edgeStyle=orthogonalEdgeStyle;rounded=0;orthogonalLoop=1;jettySize=auto;html=1;entryX=0;entryY=0.5;entryDx=0;entryDy=0;" edge="1" parent="1" source="DsJNgyasQLabcaco0UrT-16" target="DsJNgyasQLabcaco0UrT-1">
          <mxGeometry x="-0.9604" relative="1" as="geometry">
            <Array as="points">
              <mxPoint x="1127" y="630" />
              <mxPoint x="49" y="630" />
              <mxPoint x="49" y="120" />
            </Array>
            <mxPoint y="1" as="offset" />
          </mxGeometry>
        </mxCell>
        <mxCell id="DsJNgyasQLabcaco0UrT-32" value="não" style="edgeStyle=orthogonalEdgeStyle;rounded=0;orthogonalLoop=1;jettySize=auto;html=1;" edge="1" parent="1" source="DsJNgyasQLabcaco0UrT-16" target="DsJNgyasQLabcaco0UrT-33">
          <mxGeometry relative="1" as="geometry">
            <mxPoint x="1266.6470875459559" y="347.8235581341912" as="targetPoint" />
          </mxGeometry>
        </mxCell>
        <mxCell id="DsJNgyasQLabcaco0UrT-16" value="timeout ebulidor?" style="rhombus;whiteSpace=wrap;html=1;rounded=0;" vertex="1" parent="1">
          <mxGeometry x="1086.5" y="465" width="80" height="80" as="geometry" />
        </mxCell>
        <mxCell id="DsJNgyasQLabcaco0UrT-22" value="não" style="edgeStyle=orthogonalEdgeStyle;rounded=0;orthogonalLoop=1;jettySize=auto;html=1;entryX=0.5;entryY=0;entryDx=0;entryDy=0;" edge="1" parent="1" source="DsJNgyasQLabcaco0UrT-20" target="DsJNgyasQLabcaco0UrT-4">
          <mxGeometry x="-0.7628" relative="1" as="geometry">
            <mxPoint as="offset" />
          </mxGeometry>
        </mxCell>
        <mxCell id="DsJNgyasQLabcaco0UrT-23" value="sim" style="edgeStyle=orthogonalEdgeStyle;rounded=0;orthogonalLoop=1;jettySize=auto;html=1;" edge="1" parent="1" source="DsJNgyasQLabcaco0UrT-20" target="DsJNgyasQLabcaco0UrT-26">
          <mxGeometry x="-0.1736" relative="1" as="geometry">
            <mxPoint x="940" y="120" as="targetPoint" />
            <Array as="points">
              <mxPoint x="1127" y="120" />
            </Array>
            <mxPoint as="offset" />
          </mxGeometry>
        </mxCell>
        <mxCell id="DsJNgyasQLabcaco0UrT-20" value="temperatura &amp;gt;= temperatura alvo?" style="rhombus;whiteSpace=wrap;html=1;rounded=0;" vertex="1" parent="1">
          <mxGeometry x="1064" y="163" width="125" height="110" as="geometry" />
        </mxCell>
        <mxCell id="DsJNgyasQLabcaco0UrT-27" style="edgeStyle=orthogonalEdgeStyle;rounded=0;orthogonalLoop=1;jettySize=auto;html=1;entryX=1;entryY=0.5;entryDx=0;entryDy=0;" edge="1" parent="1" source="DsJNgyasQLabcaco0UrT-26" target="DsJNgyasQLabcaco0UrT-3">
          <mxGeometry relative="1" as="geometry" />
        </mxCell>
        <mxCell id="DsJNgyasQLabcaco0UrT-26" value="ativa sinal de fim de temperatura" style="rounded=1;whiteSpace=wrap;html=1;" vertex="1" parent="1">
          <mxGeometry x="835" y="90" width="120" height="60" as="geometry" />
        </mxCell>
        <mxCell id="DsJNgyasQLabcaco0UrT-30" style="edgeStyle=orthogonalEdgeStyle;rounded=0;orthogonalLoop=1;jettySize=auto;html=1;entryX=1;entryY=0.5;entryDx=0;entryDy=0;" edge="1" parent="1" source="DsJNgyasQLabcaco0UrT-29" target="DsJNgyasQLabcaco0UrT-1">
          <mxGeometry relative="1" as="geometry" />
        </mxCell>
        <mxCell id="DsJNgyasQLabcaco0UrT-29" value="desativa sinais de preparar e fim de temperatura;&lt;div&gt;publica mensagem de término via MQTT;&lt;br&gt;&lt;div&gt;espera delay de término de preparo&lt;/div&gt;&lt;/div&gt;" style="rounded=1;whiteSpace=wrap;html=1;" vertex="1" parent="1">
          <mxGeometry x="375" y="72.5" width="160" height="95" as="geometry" />
        </mxCell>
        <mxCell id="DsJNgyasQLabcaco0UrT-34" style="edgeStyle=orthogonalEdgeStyle;rounded=0;orthogonalLoop=1;jettySize=auto;html=1;entryX=0.5;entryY=1;entryDx=0;entryDy=0;" edge="1" parent="1" source="DsJNgyasQLabcaco0UrT-33" target="DsJNgyasQLabcaco0UrT-20">
          <mxGeometry relative="1" as="geometry" />
        </mxCell>
        <mxCell id="DsJNgyasQLabcaco0UrT-33" value="espera delay de medição de temperatura" style="rounded=1;whiteSpace=wrap;html=1;" vertex="1" parent="1">
          <mxGeometry x="1066.4970875459558" y="339.0035581341912" width="120" height="60" as="geometry" />
        </mxCell>
      </root>
    </mxGraphModel>
  </diagram>
</mxfile>
